<svg width="18" height="14" viewBox="0 0 18 14" fill="currentColor" xmlns="http://www.w3.org/2000/svg">
<g clip-path="url(#clip0_330_2918)">
<path d="M0.5 13.9211H17.5V0.5H0.5V13.9211ZM4.92466 7.6787H5.99256L7.08871 6.20958C7.1415 6.1386 7.21557 6.10616 7.29062 6.12206C7.36453 6.13817 7.42821 6.20087 7.46167 6.29057L8.37459 8.7379L9.36141 4.77089C9.39292 4.64352 9.48194 4.55753 9.58217 4.55753C9.68239 4.55753 9.77141 4.64353 9.80293 4.77089L10.8484 8.97366L11.7462 7.77011C11.7899 7.71176 11.8491 7.67868 11.911 7.67868H13.0753C13.204 7.67868 13.3083 7.81845 13.3083 7.99088C13.3083 8.16332 13.2042 8.30309 13.0753 8.30309H12.0074L10.9113 9.77221C10.8671 9.83143 10.8075 9.86365 10.7466 9.86365C10.7289 9.86365 10.7108 9.86082 10.6931 9.85516C10.6145 9.83034 10.5512 9.75284 10.5258 9.65007L9.58221 5.85662L8.6386 9.65007C8.60887 9.76982 8.5283 9.85364 8.43441 9.86256C8.33759 9.87084 8.2515 9.80356 8.20943 9.69079L7.18947 6.95692L6.25363 8.21141C6.2101 8.26997 6.15097 8.30306 6.08908 8.30306H4.9247C4.79604 8.30306 4.69176 8.16329 4.69176 7.99086C4.69176 7.81842 4.79604 7.67865 4.9247 7.67865L4.92466 7.6787Z" fill="currentColor"/>
</g>
<defs>
<clipPath id="clip0_330_2918">
<rect x="0.5" y="0.5" width="17" height="13.4211" rx="1" fill="currentColor"/>
</clipPath>
</defs>
</svg>
