<svg width="51" height="50" viewBox="0 0 51 50" fill="none" xmlns="http://www.w3.org/2000/svg">
<rect width="50.0119" height="50" rx="15" fill="white"/>
<path d="M36.7111 34.3764C38.8392 31.7135 40.0027 28.4085 40.0119 24.9999C39.9754 21.0445 38.3925 17.2599 35.6018 14.457C32.8107 11.6538 29.0333 10.0539 25.0786 10C22.0198 10.0032 19.034 10.933 16.5143 12.6669C13.9944 14.4004 12.0588 16.857 10.9625 19.7123C9.81522 22.7589 9.69002 26.0958 10.6061 29.2196C11.5221 32.3436 13.4295 35.0847 16.0402 37.0292C18.6509 38.9741 21.8235 40.0165 25.0789 39.9998C27.3138 39.9846 29.5172 39.4721 31.5293 38.4994C33.5414 37.5268 35.3116 36.1182 36.7118 34.3761L36.7111 34.3764ZM25.0081 37.413C21.6958 37.3788 18.5316 36.0356 16.2063 33.6763C13.8809 31.3172 12.5838 28.1337 12.5977 24.8208C12.6768 21.5589 14.0248 18.4564 16.3554 16.1729C18.686 13.8894 21.8155 12.6047 25.078 12.592V18.4364C27.4007 18.4689 29.5335 19.7268 30.6855 21.744C31.8377 23.7611 31.8377 26.2371 30.6855 28.2544C29.5335 30.2715 27.4007 31.5295 25.078 31.5619V37.4076L25.0081 37.413Z" fill="black"/>
<path d="M18.4382 24.9999C18.4537 26.7491 19.1607 28.4211 20.4048 29.6509C21.6487 30.8805 23.329 31.568 25.0782 31.5633V18.4365C23.329 18.4318 21.6487 19.1194 20.4048 20.3489C19.1608 21.5787 18.4537 23.2507 18.4382 25V24.9999Z" fill="black"/>
</svg>
