<svg width="20" height="20" viewBox="0 0 20 20" fill="currentColor" xmlns="http://www.w3.org/2000/svg" id="dashboard">
<path d="M9.23077 0.769231C9.23077 0.346154 8.88461 0 8.46154 0H0.769231C0.346154 0 0 0.346154 0 0.769231V8.46154C0 8.88461 0.346154 9.23077 0.769231 9.23077H8.46154C8.88461 9.23077 9.23077 8.88461 9.23077 8.46154V0.769231Z" fill="currentColor"/>
<path d="M20.0001 0.769231C20.0001 0.346154 19.6539 0 19.2308 0H11.5385C11.1154 0 10.7693 0.346154 10.7693 0.769231V8.46154C10.7693 8.88461 11.1154 9.23077 11.5385 9.23077H19.2308C19.6539 9.23077 20.0001 8.88461 20.0001 8.46154V0.769231Z" fill="currentColor"/>
<path d="M11.5385 20.0001H19.2308C19.6539 20.0001 20.0001 19.6539 20.0001 19.2308V11.5385C20.0001 11.1154 19.6539 10.7693 19.2308 10.7693H11.5385C11.1154 10.7693 10.7693 11.1154 10.7693 11.5385V19.2308C10.7693 19.6539 11.1154 20.0001 11.5385 20.0001Z" fill="currentColor"/>
<path d="M8.46154 10.7693H0.769231C0.346154 10.7693 0 11.1154 0 11.5385V19.2308C0 19.6539 0.346154 20.0001 0.769231 20.0001H8.46154C8.88461 20.0001 9.23077 19.6539 9.23077 19.2308V11.5385C9.23077 11.1154 8.88461 10.7693 8.46154 10.7693Z" fill="currentColor"/>
</svg>
