<svg width="20" height="20" viewBox="0 0 20 20" fill="currentColor" xmlns="http://www.w3.org/2000/svg">
  <path d="M17.5 0H2.49999C1.12201 0 0 1.12094 0 2.49999V13.5C0 14.879 1.12201 16 2.49999 16H9.49998V18.9999L5.9999 19.0001C5.72402 19.0001 5.49994 19.224 5.49994 19.5C5.49994 19.7761 5.72403 20 5.9999 20H13.9999C14.2759 20 14.4998 19.7759 14.4998 19.5C14.4998 19.224 14.2758 19.0001 13.9999 19.0001H10.5V16.0001H17.5C18.878 16.0001 20 14.8792 20 13.5001V2.50017C20 1.12111 18.878 0.000174386 17.5 0.000174386V0ZM13 13H6.99999C6.72393 13 6.50003 12.7761 6.50003 12.5C6.50003 12.224 6.72411 12.0001 6.99999 12.0001H13C13.276 12.0001 13.4999 12.2241 13.4999 12.5C13.4999 12.7761 13.276 13 13 13ZM13.354 7.354L10.354 10.3529C10.308 10.4 10.252 10.437 10.191 10.4619C10.1299 10.486 10.0651 10.4999 10 10.4999C9.93498 10.4999 9.87011 10.486 9.80908 10.4619C9.747 10.437 9.69207 10.3998 9.64603 10.3529L6.64608 7.354C6.45112 7.15904 6.45112 6.84199 6.64608 6.64704C6.84104 6.45208 7.15809 6.45208 7.35304 6.64704L9.50009 8.79302V2.99973C9.50009 2.72385 9.724 2.49977 10 2.49977C10.2761 2.49977 10.5 2.72386 10.5 2.99973V8.79257L12.646 6.64659C12.8409 6.45163 13.158 6.45163 13.3529 6.64659C13.5481 6.84173 13.549 7.15771 13.354 7.35373L13.354 7.354Z" fill="currentColor"/>
</svg>
