<svg width="20" height="22" viewBox="0 0 20 22" fill="none" xmlns="http://www.w3.org/2000/svg">
<path fill-rule="evenodd" clip-rule="evenodd" d="M11.9998 19.5004H7.00049C7.00049 20.3934 7.47696 21.2186 8.25026 21.6651C9.0237 22.1116 9.97659 22.1116 10.75 21.6651C11.5233 21.2186 11.9998 20.3934 11.9998 19.5004ZM8.20938 2.51514C8.5828 2.16061 9.08586 1.97521 9.60008 2.00267L9.60023 2.00263C10.6147 2.05887 11.375 2.96921 11.375 3.9837V4.82935C12.4707 5.21672 13.4195 5.93408 14.091 6.88262C14.7623 7.83115 15.1235 8.96438 15.1245 10.1267V11.5535C15.1274 12.4485 15.4503 13.313 16.0348 13.9907L16.5827 14.6302C16.8541 14.9516 17.0018 15.3593 16.9994 15.7801V15.8591C16.9988 16.3279 16.8122 16.7772 16.4807 17.1083C16.1491 17.4396 15.6995 17.6256 15.2307 17.6256H3.83416C3.48919 17.6321 3.14963 17.5407 2.85452 17.3618C2.55955 17.183 2.3214 16.9242 2.16767 16.6153C2.01307 16.2855 1.96381 15.916 2.02644 15.5572C2.08893 15.1983 2.26052 14.8673 2.5177 14.6094L2.77809 14.349C3.48064 13.6462 3.87557 12.6932 3.87586 11.6993V10.1267C3.87687 8.96442 4.23809 7.83119 4.9094 6.88266C5.58085 5.93412 6.52968 5.21676 7.62541 4.82939V3.8775C7.62467 3.36239 7.8358 2.86983 8.20938 2.51514ZM13.4809 14.4062H5.52119V15.8151H13.4809V14.4062ZM7.20837 11.7347L9.07899 13.6053C9.19194 13.7157 9.34367 13.7776 9.50165 13.7776C9.65962 13.7776 9.81136 13.7158 9.9243 13.6053L11.7949 11.7347C11.9385 11.5845 11.9927 11.3699 11.9374 11.1696C11.8821 10.9693 11.7256 10.8127 11.5253 10.7575C11.3249 10.7022 11.1103 10.7563 10.9601 10.8999L9.50106 12.3556L8.0443 10.9024C7.89358 10.7636 7.68175 10.7129 7.48455 10.7684C7.28741 10.8239 7.13306 10.9776 7.07675 11.1745C7.02044 11.3714 7.07029 11.5835 7.20834 11.7348L7.20837 11.7347ZM9.07891 11.0332L7.20828 9.16253L7.20826 9.16249C7.08975 9.0534 7.02094 8.90065 7.01779 8.73967C7.01463 8.57864 7.07736 8.42333 7.19148 8.30969C7.3056 8.19605 7.46118 8.13392 7.6222 8.13777C7.78316 8.14162 7.93564 8.21107 8.04421 8.33005L9.50096 9.78448L10.96 8.32773C11.0698 8.21292 11.2213 8.14715 11.3801 8.14538C11.539 8.14362 11.6919 8.20598 11.8042 8.31828C11.9166 8.43063 11.9789 8.58355 11.9771 8.74238C11.9754 8.90127 11.9096 9.05268 11.7948 9.16253L9.92421 11.0332C9.81128 11.1436 9.65953 11.2055 9.50156 11.2055C9.34359 11.2055 9.19185 11.1436 9.07891 11.0332Z" fill="#191919"/>
</svg>
