<svg width="20" height="20" viewBox="0 0 20 20" fill="none" xmlns="http://www.w3.org/2000/svg">
<path d="M7.00045 17.5004H11.9998C11.9998 18.3934 11.5233 19.2186 10.75 19.6651C9.97659 20.1116 9.0237 20.1116 8.25026 19.6651C7.47696 19.2186 7.00049 18.3934 7.00049 17.5004H7.00045ZM9.60008 0.00266903C9.08586 -0.0247932 8.5828 0.160614 8.20938 0.51514C7.8358 0.869826 7.62467 1.36239 7.62541 1.8775V2.82953V2.82939C6.52968 3.21676 5.58085 3.93412 4.9094 4.88266C4.23809 5.83119 3.87687 6.96442 3.87586 8.12669V9.69944V9.6993C3.87557 10.6932 3.48064 11.6462 2.77809 12.349L2.5177 12.6094C2.26052 12.8673 2.08893 13.1983 2.02644 13.5572C1.96381 13.916 2.01307 14.2855 2.16767 14.6153C2.3214 14.9242 2.55955 15.183 2.85452 15.3618C3.14963 15.5407 3.48919 15.6321 3.83416 15.6256H15.2307C15.6995 15.6256 16.1491 15.4396 16.4807 15.1083C16.8122 14.7772 16.9988 14.3279 16.9994 13.8591V13.7799V13.7801C17.0018 13.3593 16.8541 12.9516 16.5827 12.6302L16.0348 11.9907C15.4503 11.313 15.1274 10.4484 15.1245 9.55351V8.12665C15.1235 6.96438 14.7623 5.83115 14.091 4.88262C13.4195 3.93408 12.4707 3.21672 11.375 2.82935V1.9837C11.375 0.96921 10.6147 0.0588743 9.60023 0.00263164L9.60008 0.00266903Z" fill="#191919"/>
</svg>
