<svg id="shield" width="20" height="20" viewBox="0 0 20 20" fill="currentColor" xmlns="http://www.w3.org/2000/svg">
<path d="M18.5559 2.52439L10.7083 0.0964366C10.5031 0.0326774 10.2888 0.000159143 10.073 0C9.85726 0.000159388 9.64298 0.0326766 9.43779 0.0964366L1.59017 2.52439C1.43631 2.57189 1.30191 2.6637 1.20543 2.78724C1.10912 2.91077 1.05577 3.05981 1.05275 3.21345V10.219C1.04956 12.2324 1.69469 14.1984 2.90194 15.8531C4.25047 17.7058 6.22079 19.0691 8.49063 19.7199C8.77621 19.8009 9.06815 19.871 9.36633 19.9307C9.83362 20.0231 10.316 20.0231 10.7833 19.9307C13.1311 19.4635 15.2384 18.2434 16.7517 16.4751C18.2648 14.7067 19.0917 12.4977 19.0933 10.2187V3.21313C19.0959 3.05517 19.045 2.90055 18.9484 2.77206C18.8516 2.64359 18.714 2.54779 18.5559 2.49901L18.5559 2.52439ZM17.4997 11.2973C17.3044 12.852 16.6543 14.3239 15.6233 15.5456C14.5924 16.7673 13.2216 17.6903 11.6667 18.2096C11.2972 18.3267 10.8909 18.2679 10.5751 18.0513C10.2591 17.8348 10.0724 17.487 10.073 17.117V9.99722H3.76658C3.44561 9.99722 3.1377 9.87608 2.91086 9.66041C2.68384 9.44491 2.55633 9.15242 2.55633 8.84748V4.56286C2.55616 4.31898 2.63754 4.08131 2.78888 3.8843C2.94023 3.68712 3.15365 3.54095 3.39831 3.46669L8.49089 1.91353C8.85952 1.80036 9.26289 1.86173 9.57598 2.07867C9.88907 2.29561 10.0738 2.64167 10.0731 3.0097V9.9973H16.2932C16.6429 9.99555 16.9763 10.1374 17.2075 10.3866C17.4387 10.6357 17.5453 10.9677 17.4996 11.297L17.4997 11.2973Z" fill="currentColor"/>
</svg>
