<svg width="20" height="20" viewBox="0 0 20 20" fill="currentColor" xmlns="http://www.w3.org/2000/svg">
<path d="M8.96554 15.3333C8.9654 15.5562 8.97925 15.7787 9.00696 16H0V15.3333C0.000144346 13.4369 0.760266 11.6143 2.12075 10.2482C3.48123 8.88199 5.33631 8.07827 7.29682 8.00588C9.25712 7.93348 11.1702 8.5981 12.6347 9.85996C11.5422 10.3332 10.6147 11.1016 9.96367 12.0727C9.31265 13.0438 8.96614 14.1762 8.96569 15.3334L8.96554 15.3333ZM7.58629 6.66676C8.50084 6.66676 9.37785 6.31548 10.0245 5.69033C10.6712 5.06532 11.0345 4.21739 11.0345 3.33331C11.0345 2.44923 10.6712 1.60144 10.0245 0.976293C9.37785 0.351145 8.50084 0 7.58629 0C6.67174 0 5.79458 0.351145 5.14803 0.976293C4.50133 1.60144 4.13794 2.44923 4.13794 3.33331C4.13794 4.21739 4.50133 5.06532 5.14803 5.69033C5.79458 6.31547 6.67174 6.66676 7.58629 6.66676ZM20 15.3333C20 16.571 19.4913 17.758 18.586 18.6332C17.6807 19.5084 16.4528 20 15.1724 20C13.892 20 12.6641 19.5084 11.7588 18.6332C10.8535 17.7579 10.3448 16.571 10.3448 15.3333C10.3448 14.0957 10.8535 12.9086 11.7588 12.0334C12.6641 11.1583 13.892 10.6666 15.1724 10.6666C16.4528 10.6666 17.6807 11.1583 18.586 12.0334C19.4913 12.9086 20 14.0956 20 15.3333ZM17.4277 14.7666L16.4483 13.8198L14.7862 15.4331L13.8966 14.5665L12.9173 15.5132L14.7862 17.3333L17.4277 14.7666Z" fill="currentColor"/>
</svg>
