<svg width="35" height="36" viewBox="0 0 35 36" fill="currentColor" xmlns="http://www.w3.org/2000/svg">
<path d="M17.5055 0.500006C13.8269 0.497076 10.2412 1.65374 7.25772 3.80527C4.27454 5.95689 2.04604 8.9935 0.88839 12.4836C-0.268961 15.974 -0.296195 19.7405 0.810723 23.2476C1.91764 26.7548 4.10219 29.8234 7.05401 32.0174C10.0723 34.2783 13.7424 35.5 17.5141 35.5C21.2857 35.5 24.9555 34.2783 27.9743 32.0174C30.9184 29.8178 33.0954 26.7475 34.1962 23.2416C35.2972 19.736 35.2665 15.9727 34.1079 12.4858C32.9497 8.9986 30.7227 5.96431 27.7427 3.81277C24.7628 1.66146 21.1812 0.50248 17.5054 0.500155L17.5055 0.500006ZM17.5055 7.49994C18.8985 7.49994 20.2343 8.05307 21.219 9.03775C22.204 10.0221 22.7573 11.3575 22.7573 12.75C22.7573 14.1424 22.204 15.4778 21.219 16.4622C20.2343 17.4469 18.8985 18 17.5055 18C16.1126 18 14.7768 17.4469 13.792 16.4622C12.807 15.4778 12.2537 14.1424 12.2537 12.75C12.2578 11.3589 12.8126 10.026 13.7964 9.0421C14.7805 8.05862 16.114 7.504 17.5055 7.49994ZM17.5055 32.0003C13.8872 31.9968 10.4109 30.5917 7.80691 28.0801C8.84527 25.4799 10.8836 23.4048 13.4652 22.3194C16.0469 21.2336 18.9562 21.2283 21.5418 22.3047C24.1272 23.3808 26.1729 25.4489 27.2209 28.0452C24.6231 30.5811 21.1359 32.0005 17.505 32.0002L17.5055 32.0003Z" fill="white"/>
</svg>
