<svg id="user-shield" width="20" height="20" viewBox="0 0 20 20" fill="currentColor" xmlns="http://www.w3.org/2000/svg">
<path d="M4.13802 3.80505C4.13802 2.796 4.50125 1.82812 5.1479 1.11452C5.79468 0.400959 6.67171 0 7.58627 0C8.50084 0 9.37796 0.400959 10.0246 1.11452C10.6713 1.82808 11.0347 2.796 11.0347 3.80505C11.0347 4.81425 10.6713 5.78213 10.0246 6.49573C9.378 7.20929 8.50084 7.61025 7.58627 7.61025C6.67171 7.61025 5.79471 7.20929 5.1479 6.49573C4.50125 5.78217 4.13802 4.81425 4.13802 3.80505ZM15.8622 8.37142L11.724 9.28462V13.5313C11.728 14.4095 11.9103 15.2756 12.2577 16.0658C12.6049 16.8561 13.1084 17.5502 13.7309 18.0974L15.862 20L17.993 18.1203H17.9931C18.6156 17.5731 19.1191 16.8788 19.4664 16.0886C19.8136 15.2985 19.9961 14.4324 20 13.5541V9.26947L15.8622 8.37142ZM10.345 9.72604C8.80776 9.06394 7.11695 8.97284 5.52874 9.4667C3.94046 9.96069 2.54142 11.0124 1.54365 12.4628C0.546029 13.9132 0.00404562 15.6829 0 17.5038V18.2648H11.9106C10.8992 16.9342 10.345 15.2528 10.3451 13.5163L10.345 9.72604Z" fill="currentColor"/>
</svg>
